Coordinates
version=1
nRows=17
nColumns=27
inDegrees=yes

Units are S.I. units (second, meters, Newtons, ...)
If the header above contains a line with 'inDegrees', this indicates whether rotational values are in degrees (yes) or radians (no).

endheader
time	pelvis_rotation	pelvis_tilt	pelvis_list	pelvis_tx	pelvis_ty	pelvis_tz	hip_flexion_r	hip_adduction_r	hip_rotation_r	knee_angle_r	knee_rotation_r	knee_adduction_r	knee_angle_r_beta	ankle_angle_r	subtalar_angle_r	mtp_angle_r	hip_flexion_l	hip_adduction_l	hip_rotation_l	knee_angle_l	knee_rotation_l	knee_adduction_l	knee_angle_l_beta	ankle_angle_l	subtalar_angle_l	mtp_angle_l
      3.60000000	      4.09132355	    -20.76235445	      0.16990429	      0.05044292	      0.83343542	     -1.15034680	     29.63596335	    -25.13394513	    -34.24455815	     15.18980605	      0.00000000	      3.15605172	      0.26511213	     -7.67986904	      0.00000000	      0.00000000	     32.87657162	    -21.53270769	    -10.10188172	      8.96439844	      0.00000000	      6.57361925	      0.15645827	    -14.28737455	      0.00000000	      0.00000000
      3.60500000	      3.87365139	    -21.13297502	      0.32033041	      0.04916624	      0.83307897	     -1.15041043	     30.61053558	    -25.45265106	    -33.82393006	     15.88037391	      0.00000000	      3.29891097	      0.27716481	     -7.46983667	      0.00000000	      0.00000000	     33.39778091	    -21.49022605	    -10.48696055	      9.29699384	      0.00000000	      6.35561982	      0.16226315	    -14.18842991	      0.00000000	      0.00000000
      3.61000000	      4.04515766	    -21.74810257	      0.78822029	      0.04740964	      0.83248897	     -1.15086615	     31.90026833	    -26.29103640	    -34.00130975	     16.93846661	      0.00000000	      3.86425487	      0.29563201	     -7.07355912	      0.00000000	      0.00000000	     34.35765228	    -21.05598784	    -10.38980014	      9.73226859	      0.00000000	      6.36328710	      0.16986013	    -14.06876786	      0.00000000	      0.00000000
      3.61500000	      3.95312940	    -22.36079527	      1.16247340	      0.04555379	      0.83191996	     -1.15115619	     33.30798517	    -26.93146393	    -33.66393024	     17.90603808	      0.00000000	      4.18686694	      0.31251932	     -6.77430023	      0.00000000	      0.00000000	     35.20411034	    -20.78942332	    -10.60541424	     10.14049103	      0.00000000	      6.29368201	      0.17698496	    -13.96882389	      0.00000000	      0.00000000
      3.62000000	      3.19219460	    -23.52465306	      1.67415571	      0.04218279	      0.83089821	     -1.15138514	     36.11246620	    -27.51894256	    -31.18279258	     19.33469723	      0.00000000	      3.41451063	      0.33745413	     -6.34504246	      0.00000000	      0.00000000	     36.66957091	    -20.67267475	    -11.92068947	     11.14601882	      0.00000000	      5.66356050	      0.19453473	    -13.48059217	      0.00000000	      0.00000000
      3.62500000	      3.85117067	    -23.56465451	      2.02527262	      0.04173655	      0.83061537	     -1.15191043	     36.17006817	    -28.32265027	    -32.85417848	     19.89346386	      0.00000000	      4.77553739	      0.34720644	     -6.17067175	      0.00000000	      0.00000000	     36.92966398	    -20.16431109	    -11.11691025	     11.04041945	      0.00000000	      6.06253965	      0.19269167	    -13.71196106	      0.00000000	      0.00000000
      3.63000000	      3.79501740	    -24.25517488	      2.48772935	      0.03960713	      0.82988021	     -1.15229180	     37.77362544	    -29.01952684	    -32.26518975	     20.91163362	      0.00000000	      4.98342635	      0.36497686	     -5.89072131	      0.00000000	      0.00000000	     37.90801400	    -19.85313206	    -11.40604955	     11.53764924	      0.00000000	      5.94483041	      0.20136997	    -13.57382607	      0.00000000	      0.00000000
      3.63500000	      2.90132592	    -25.81467713	      3.20572787	      0.03528509	      0.82851486	     -1.15266522	     41.46348036	    -29.62958238	    -28.99783638	     22.53429834	      0.00000000	      3.99063066	      0.39329770	     -5.51282632	      0.00000000	      0.00000000	     39.75492830	    -19.68040720	    -12.89614565	     12.65157198	      0.00000000	      5.43269717	      0.22081159	    -13.06762463	      0.00000000	      0.00000000
      3.64000000	      3.59772824	    -25.68692974	      3.48428914	      0.03506841	      0.82826114	     -1.15309006	     41.22346349	    -30.37139707	    -30.66240816	     22.94643186	      0.00000000	      5.27102119	      0.40049079	     -5.41020818	      0.00000000	      0.00000000	     39.88169560	    -19.23794877	    -12.17431732	     12.56151802	      0.00000000	      5.66805874	      0.21923985	    -13.29325520	      0.00000000	      0.00000000
      3.64500000	      3.53890067	    -26.45268297	      4.00070555	      0.03266399	      0.82737217	     -1.15351103	     43.03404878	    -31.02761298	    -29.78161100	     23.94877707	      0.00000000	      5.38219993	      0.41798501	     -5.18686937	      0.00000000	      0.00000000	     40.96433964	    -18.93755497	    -12.54569333	     13.12626386	      0.00000000	      5.52860795	      0.22909652	    -13.14367145	      0.00000000	      0.00000000
      3.65000000	      2.94048872	    -27.21908538	      4.83203943	      0.02997563	      0.82628580	     -1.15410290	     45.52194142	    -31.73895412	    -27.66829719	     25.17939598	      0.00000000	      5.25711189	      0.43946336	     -4.96909853	      0.00000000	      0.00000000	     41.65525581	    -18.54771874	    -13.87400891	     13.57466822	      0.00000000	      5.23917946	      0.23692266	    -12.99274765	      0.00000000	      0.00000000
      3.65500000	      1.96325660	    -29.17005650	      5.87780110	      0.02462654	      0.82437900	     -1.15454977	     50.25845796	    -32.20280670	    -23.43590487	     26.97626800	      0.00000000	      4.13521658	      0.47082470	     -4.65258442	      0.00000000	      0.00000000	     43.84031347	    -18.33634655	    -15.63519713	     14.78513127	      0.00000000	      4.87177534	      0.25804922	    -12.54106868	      0.00000000	      0.00000000
      3.66000000	      3.31126530	    -28.62055008	      5.52449123	      0.02555344	      0.82449432	     -1.15465679	     48.42436331	    -32.71708893	    -26.73677502	     26.76958639	      0.00000000	      5.53432371	      0.46721742	     -4.67320046	      0.00000000	      0.00000000	     44.05333511	    -18.18681067	    -13.95088395	     14.84390377	      0.00000000	      4.90628252	      0.25907499	    -12.66741028	      0.00000000	      0.00000000
      3.66500000	      3.31340949	    -29.31692420	      6.02522475	      0.02320228	      0.82346124	     -1.15500928	     50.16617122	    -33.23999826	    -25.77861802	     27.66333120	      0.00000000	      5.59605623	      0.48281621	     -4.53215755	      0.00000000	      0.00000000	     45.10605199	    -17.96100023	    -14.36745350	     15.45031098	      0.00000000	      4.68245046	      0.26965880	    -12.50462163	      0.00000000	      0.00000000
      3.67000000	      2.52279926	    -30.06363769	      7.06495755	      0.02037420	      0.82209892	     -1.15561202	     53.05514593	    -33.78423700	    -22.92840036	     28.90385744	      0.00000000	      5.40538152	      0.50446748	     -4.34428214	      0.00000000	      0.00000000	     45.61715548	    -17.59679722	    -16.27022017	     15.91003022	      0.00000000	      4.24938178	      0.27768241	    -12.35524167	      0.00000000	      0.00000000
      3.67500000	      3.07889502	    -30.41712716	      7.06037687	      0.01897998	      0.82134118	     -1.15566030	     53.48775291	    -34.12842643	    -23.52085559	     29.35508956	      0.00000000	      5.70992260	      0.51234297	     -4.27678439	      0.00000000	      0.00000000	     46.69525775	    -17.59629803	    -15.75954103	     16.55433239	      0.00000000	      3.99700592	      0.28892761	    -12.17309807	      0.00000000	      0.00000000
      3.68000000	      2.81848718	    -32.56400021	      7.97740723	      0.01341169	      0.81912811	     -1.15598402	     58.02472256	    -34.40330322	    -20.14436098	     30.90133768	      0.00000000	      4.71992832	      0.53933009	     -4.13867276	      0.00000000	      0.00000000	     49.54695969	    -17.48805473	    -16.48275780	     17.97049771	      0.00000000	      3.92037778	      0.31364435	    -11.71158998	      0.00000000	      0.00000000
